<?xml version="1.0" encoding="UTF-8" standalone="no"?>
<svg
   xmlns:dc="http://purl.org/dc/elements/1.1/"
   xmlns:cc="http://creativecommons.org/ns#"
   xmlns:rdf="http://www.w3.org/1999/02/22-rdf-syntax-ns#"
   xmlns:svg="http://www.w3.org/2000/svg"
   xmlns="http://www.w3.org/2000/svg"
   xmlns:sodipodi="http://sodipodi.sourceforge.net/DTD/sodipodi-0.dtd"
   xmlns:inkscape="http://www.inkscape.org/namespaces/inkscape"
   viewBox="0 0 60 30"
   width="269.64349"
   height="194.36255"
   id="svg2"
   sodipodi:version="0.32"
   inkscape:version="0.46"
   sodipodi:docname="uk.svg"
   inkscape:output_extension="org.inkscape.output.svg.inkscape"
   version="1.0">
  <metadata
     id="metadata20">
    <rdf:RDF>
      <cc:Work
         rdf:about="">
        <dc:format>image/svg+xml</dc:format>
        <dc:type
           rdf:resource="http://purl.org/dc/dcmitype/StillImage" />
      </cc:Work>
    </rdf:RDF>
  </metadata>
  <defs
     id="defs18">
    <inkscape:perspective
       sodipodi:type="inkscape:persp3d"
       inkscape:vp_x="0 : 300 : 1"
       inkscape:vp_y="0 : 1000 : 0"
       inkscape:vp_z="1200 : 300 : 1"
       inkscape:persp3d-origin="600 : 200 : 1"
       id="perspective22" />
  </defs>
  <sodipodi:namedview
     inkscape:window-height="669"
     inkscape:window-width="857"
     inkscape:pageshadow="2"
     inkscape:pageopacity="0.0"
     guidetolerance="10.0"
     gridtolerance="10.0"
     objecttolerance="10.0"
     borderopacity="1.0"
     bordercolor="#666666"
     pagecolor="#ffffff"
     id="base"
     showgrid="false"
     inkscape:zoom="0.64111015"
     inkscape:cx="337.07924"
     inkscape:cy="171.6026"
     inkscape:window-x="75"
     inkscape:window-y="75"
     inkscape:current-layer="svg2"
     showborder="true"
     inkscape:showpageshadow="false" />
  <clipPath
     id="t">
    <path
       d="M 30,15 L 60,15 L 60,30 L 30,15 z M 30,15 L 30,30 L 0,30 L 30,15 z M 30,15 L 0,15 L 0,0 L 30,15 z M 30,15 L 30,0 L 60,0 L 30,15 z"
       id="path5" />
  </clipPath>
  <path
     d="M -0.0052839591,-6.9776063 L -0.0052839591,38.263694 L 60.279597,38.263694 L 60.279597,-6.9776063 L -0.0052839591,-6.9776063 z"
     id="path7"
     style="fill:#00247d" />
  <path
     d="M -0.0052839591,-6.9776063 L 60.279597,38.263694 M 60.279597,-6.9776063 L -0.0052839591,38.263694"
     id="path9"
     style="stroke:#ffffff;stroke-width:7.38561678" />
  <path
     d="M 0,0 L 60,30 M 60,0 L 0,30"
     clip-path="url(#t)"
     id="path11"
     transform="matrix(1.004748,0,0,1.5080433,-5.2839995e-3,-6.9776063)"
     style="stroke:#cf142b;stroke-width:4" />
  <path
     d="M 30.137157,-6.9776063 L 30.137157,38.263694 M -0.0052839591,15.643043 L 60.279597,15.643043"
     id="path13"
     style="stroke:#ffffff;stroke-width:12.3093605" />
  <path
     d="M 30.137157,-6.9776063 L 30.137157,38.263694 M -0.0052839591,15.643043 L 60.279597,15.643043"
     id="path15"
     style="stroke:#cf142b;stroke-width:7.38561678" />
</svg>
